{"title":"Bhoothnath Returns 2014 DVDRip Hindi x264-N3kr4","uid":10212598,"size":734599808,"categoryP":"video","categoryS":"hd___movies","magnet":"?xt=urn:btih:bb18d60e292c3c3f8dbd95ae661bc93e3c7c91ed&amp;dn=Bhoothnath+Returns+2014+DVDRip+Hindi+x264-N3kr4&amp;tr=udp%3A%2F%2Ftracker.openbittorrent.com%3A80&amp;tr=udp%3A%2F%2Fopen.demonii.com%3A1337&amp;tr=udp%3A%2F%2Ftracker.coppersurfer.tk%3A6969&amp;tr=udp%3A%2F%2Fexodus.desync.com%3A6969","seeders":0,"leechers":0,"uploader":"Falcon.G13","files":2,"time":1400890584,"description":"Bhoothnath Returns (2014)\n155 min - Comedy | Drama | Horror - 11 April 2014 (India)\n7.5 Your rating: -/10 Ratings: 7.5/10 from 1,085 users \nReviews: 22 user | 15 critic\nBhoothnath Returns takes Bhoothnath's story forward. As he returns to 'Bhoot World' he is greeted with taunts and condemnation from other ghosts for bringing disrepute to the ...\n &lt;a href=&quot;\nhttp://i.imgur.com/DKyA55q.jpg&quot; rel=&quot;nofollow&quot; target=&quot;_NEW&quot;&gt;\nhttp://i.imgur.com/DKyA55q.jpg&lt;/a&gt; &lt;a href=&quot;\nhttp://i.imgur.com/XHVcKC6.jpg&quot; rel=&quot;nofollow&quot; target=&quot;_NEW&quot;&gt;\nhttp://i.imgur.com/XHVcKC6.jpg&lt;/a&gt; &lt;a href=&quot;\nhttp://i.imgur.com/HIt47O1.jpg&quot; rel=&quot;nofollow&quot; target=&quot;_NEW&quot;&gt;\nhttp://i.imgur.com/HIt47O1.jpg&lt;/a&gt; &lt;a href=&quot;\nhttp://i.imgur.com/xsRLutt.jpg&quot; rel=&quot;nofollow&quot; target=&quot;_NEW&quot;&gt;\nhttp://i.imgur.com/xsRLutt.jpg&lt;/a&gt; &lt;a href=&quot;\nhttp://i.imgur.com/1WZMLOZ.jpg&quot; rel=&quot;nofollow&quot; target=&quot;_NEW&quot;&gt;\nhttp://i.imgur.com/1WZMLOZ.jpg&lt;/a&gt; &lt;a href=&quot;\nhttp://i.imgur.com/VxXOwWm.jpg&quot; rel=&quot;nofollow&quot; target=&quot;_NEW&quot;&gt;\nhttp://i.imgur.com/VxXOwWm.jpg&lt;/a&gt; &lt;a href=&quot;\nhttp://i.imgur.com/2LoBD48.jpg&quot; rel=&quot;nofollow&quot; target=&quot;_NEW&quot;&gt;\nhttp://i.imgur.com/2LoBD48.jpg&lt;/a&gt; &lt;a href=&quot;\nhttp://i.imgur.com/t3mN46f.jpg&quot; rel=&quot;nofollow&quot; target=&quot;_NEW&quot;&gt;\nhttp://i.imgur.com/t3mN46f.jpg&lt;/a&gt;\n\nGeneral\nComplete name :Bhoothnath Returns 2014 DVDRip Hindi x264-N3kr4.mkv\nFormat : Matroska\nFormat version : Version 2\nFile size : 700 MiB\nDuration : 2h 24mn\nOverall bit rate : 676 Kbps\nEncoded date : UTC 2014-05-23 13:38:28\nWriting application : mkvmerge v6.9.1 ('Blue Panther') 32bit built on Apr 18 2014 18:15:44\nWriting library : libebml v1.3.0 + libmatroska v1.4.1\n\nVideo\nID : 1\nFormat : AVC\nFormat/Info : Advanced Video Codec\nFormat profile : &lt;a class=&quot;__cf_email__&quot; href=&quot;/cdn-cgi/l/email-protection&quot; data-cfemail=&quot;3b73525c537b7708150b&quot;&gt;[email&amp;#160;protected]&lt;/a&gt;&lt;script data-cfhash='f9e31' type=&quot;text/javascript&quot;&gt;\n/* &lt;![CDATA[ */!function(){try{var t=&quot;currentScript&quot;in document?document.currentScript:function(){for(var t=document.getElementsByTagName(&quot;script&quot;),e=t.length;e--;)if(t[e].getAttribute(&quot;data-cfhash&quot;))return t[e]}();if(t&amp;&amp;t.previousSibling){var e,r,n,i,c=t.previousSibling,a=c.getAttribute(&quot;data-cfemail&quot;);if(a){for(e=&quot;&quot;,r=parseInt(a.substr(0,2),16),n=2;a.length-n;n+=2)i=parseInt(a.substr(n,2),16)^r,e+=String.fromCharCode(i);e=document.createTextNode(e),c.parentNode.replaceChild(e,c)}t.parentNode.removeChild(t);}}catch(u){}}()/* ]]&gt; */&lt;/script&gt;\nFormat settings, CABAC : Yes\nFormat settings, ReFrames : 4 frames\nCodec ID : V_MPEG4/ISO/AVC\nDuration : 2h 24mn\nBit rate : 594 Kbps\nWidth : 640 pixels\nHeight : 272 pixels\nDisplay aspect ratio : 2.35:1\nFrame rate mode : Constant\nFrame rate : 29.970 fps\nColor space : YUV\nChroma subsampling : 4:2:0\nBit depth : 8 bits\nScan type : Progressive\nBits/(Pixel*Frame) : 0.114\nStream size : 604 MiB (86%)\nLanguage : English\nDefault : Yes\nForced : No\n\nAudio\nID : 2\nFormat : MPEG Audio\nFormat version : Version 1\nFormat profile : Layer 3\nMode : Joint stereo\nMode extension : MS Stereo\nCodec ID : A_MPEG/L3\nCodec ID/Hint : MP3\nDuration : 2h 24mn\nBit rate mode : Constant\nBit rate : 80.0 Kbps\nChannel(s) : 2 channels\nSampling rate : 32.0 KHz\nCompression mode : Lossy\nStream size : 82.9 MiB (12%)\nWriting library : LAME3.99r\nEncoding settings : -m j -V 4 -q 2 -lowpass 13.5 -b 80\nDefault : Yes\nForced : No","torrent":{"xt":"urn:btih:bb18d60e292c3c3f8dbd95ae661bc93e3c7c91ed","amp;dn":"Bhoothnath+Returns+2014+DVDRip+Hindi+x264-N3kr4","amp;tr":["udp%3A%2F%2Ftracker.openbittorrent.com%3A80","udp%3A%2F%2Fopen.demonii.com%3A1337","udp%3A%2F%2Ftracker.coppersurfer.tk%3A6969","udp%3A%2F%2Fexodus.desync.com%3A6969"],"infoHash":"bb18d60e292c3c3f8dbd95ae661bc93e3c7c91ed","infoHashBuffer":{"type":"Buffer","data":[187,24,214,14,41,44,60,63,141,189,149,174,102,27,201,62,60,124,145,237]},"announce":[],"urlList":[]}}